<svg xmlns="http://www.w3.org/2000/svg" xmlns:xlink="http://www.w3.org/1999/xlink" version="1.1" id="Layer_1" x="0px" y="0px" viewBox="0 0 258.7 79.1" style="enable-background:new 0 0 258.7 79.1;" xml:space="preserve">
<style type="text/css">
	.st0{fill:#CC3634;}
	.st1{fill:#353434;}
	.st2{fill-rule:evenodd;clip-rule:evenodd;fill:#353434;}
	.st3{fill-rule:evenodd;clip-rule:evenodd;fill:#FFFFFF;}
	.st4{fill:none;stroke:#221F1F;stroke-width:0.1935;stroke-miterlimit:2.6131;}
	.st5{fill-rule:evenodd;clip-rule:evenodd;fill:#221F1F;}
	.st6{fill:none;stroke:#221F1F;stroke-width:0.129;stroke-miterlimit:2.6131;}
	.st7{fill-rule:evenodd;clip-rule:evenodd;fill:#BA2026;}
	.st8{fill-rule:evenodd;clip-rule:evenodd;fill:#F38020;}
	.st9{fill:#221F1F;}
	.st10{fill:#FFFFFF;}
</style>
<g>
	<path class="st0" d="M78.5,30.1c0,4.3,2.7,10,8.4,10h0.4c0.6,0,1.5-0.1,2.3-0.1c1.7,0,3.6,0.1,5,0.1c1.7,0,3.7-0.6,3.7-1.2   c0-0.1,0-0.3-0.1-0.3c-0.5-0.4-1.5-0.9-1.5-1.8v-6.2c0-1.4,0.8-1.8,1.5-2.3c0.3-0.2,0.6-0.4,0.6-0.6c0-0.2-0.4-0.5-1.4-0.5   c-1.3,0.2-2.3,0.2-3.1,0.2c-0.8,0-2-0.1-2.9-0.1c-0.6,0-1.2,0.1-1.3,0.3c0,0.1-0.1,0.2-0.1,0.2c0,0.9,1.9,1,1.9,2.3V34   c0,0.7,0,1.1-0.8,1.4c-1,0.2-2,0.4-2.8,0.4c-4.6,0-6.3-4.1-6.3-7.7c0.3-5.3,2-6.9,7-7.3c1,0,2.6,0,2.6,0.9c0,0.9-1,1.1-2,1.8   c-1,0.7-5.7,2.3-5.7,4.2c0,0.9,0.8,1.6,1.9,1.6c1.2,0,1.7-0.6,1.7-1.3c0-0.2-0.1-0.5-0.2-0.7c0-0.1-0.1-0.2-0.1-0.3   c0-1.2,3.7-2.4,6.4-3.6c1-0.4,3.1-1.1,3.1-2.7c0-1.4-3.2-1.6-5.4-1.6h-1.4C80.8,18.9,78.5,24.2,78.5,30.1"/>
	<path class="st0" d="M101.7,37.2c0,0.7-0.8,0.9-1.3,1.1c-0.2,0.1-0.4,0.4-0.4,0.6c0,0.3,0.3,0.6,0.6,0.7c0.5,0.2,1,0.3,1.5,0.3   c0.5,0,1.2-0.1,1.8-0.1c0.6,0,1.3,0.1,1.9,0.1c0.3,0,0.6,0,1-0.1c0.7-0.1,1.3-0.6,1.3-1c0-0.2-0.1-0.4-0.5-0.6   c-1.1-0.4-1.3-0.4-1.6-1.4v-8.3c0.5,0,1.7-0.6,2.6-0.6c0.4,0,0.8,0.2,0.9,0.6v0.2c0,0.7-0.9,1.8-0.9,2.4c0,0.5,0.5,0.8,1.6,0.9   c-0.1-0.1-0.2-0.1-0.2-0.2c0-0.2,0.9-0.4,1.7-0.7c1.5-0.7,2-2.5,2-3.4c0-1.8-0.8-3.2-3.1-3.2c-1.8,0-3.9,2.6-4.7,2.6   c0-0.7,0.8-0.9,1.3-1.4c0.2-0.2,0.3-0.4,0.3-0.5c0-0.2-0.3-0.5-1.1-0.5h-5.4c-0.9,0-1.2,0.3-1.2,0.5c0,0.3,0.3,0.6,0.7,0.7   c0.8,0.2,1,0.7,1,1.6V37.2z"/>
	<path class="st0" d="M127.5,35.4c-1.3,0-3.1,0.7-4.1,0.7c-2.4-0.3-2.9-1.1-2.9-2.5c0-1.7,3.4-3,5.2-3.7c0.8-0.3,1.1-0.8,1.1-1.3   c0-0.5-0.5-1-1.5-1h-0.3c-0.8,0-2.2,0.2-3.1,0.2c-0.4,0-0.9-0.1-1.1-0.2c-0.2-0.2-0.4-0.3-0.4-0.4c0-0.6,2-0.9,3.3-0.9   c2.8,0,3.9,0.9,3.9,3V35.4z M115.6,35.6c0,2.4,1.9,4.4,5.1,4.4c0.1,0,0.5-0.1,0.6-0.1c1.6,0,2.9-0.2,3.9-0.2c1,0,2.8,0.2,4.4,0.2   c2.5,0,3.7-0.5,3.7-1.1c0-0.3-0.5-0.9-1.4-1.2v-8c0-3.6-1.9-4.8-3.9-4.8c-1,0.1-2,0.1-2.8,0.1c-1.7,0-3.2-0.1-4.9-0.1   c-0.5,0-3.9,0.3-3.9,2.1c0,1.8,1.9,2.3,3.7,2.3c0.9,0,1.9-0.2,2.6-0.3h0.4c0.4,0,0.6,0.2,0.6,0.3c0,0.1-0.2,0.3-0.6,0.4   C119.2,30.8,115.6,32.4,115.6,35.6z"/>
	<path class="st0" d="M136.7,42.7c0,0.5-0.5,0.5-1.3,0.9c-0.3,0.2-0.5,0.4-0.5,0.6c0,0.3,0.4,0.6,0.8,0.8c0.5,0.3,1.2,0.3,1.6,0.3   c0.6,0,1.4-0.1,1.7-0.1c0.5,0,1.2,0.1,1.8,0.1c0.3,0,0.7,0,1-0.1c0.6-0.1,1.1-0.6,1.1-1c0-0.2-0.2-0.5-0.6-0.6   c-0.5-0.2-1.3-0.5-1.3-0.9v-3.6c-0.6-0.4-0.9-1.1-0.9-1.9c0-0.8,0.4-1.8,0.9-2.2v-6.4c1-0.9,2.9-1.6,4.2-1.6c1.8,0,3.8,1.3,3.8,4.3   c0,2.5-1,4.6-3.6,4.8c-1.3,0-1.3-0.3-1.5-0.9c-0.5-1.1-1.6-1.4-2.6-1.4c0.1,0.2,0.2,0.5,0.2,0.7c0,0.8-1,1.6-1,2.3   c0,2,1.5,3.4,4.7,3.4h0.3c3.7,0,6.9-3.6,6.9-8c-0.3-5.2-2.9-7.6-6.5-7.6c-2.8,0-4.2,1.9-5.2,2.4c0-0.5,0.5-0.9,1-1.1   c0.2-0.1,0.3-0.3,0.3-0.4c0-0.2-0.3-0.6-1-0.6h-4.6c-1,0-1.5,0.4-1.5,0.7c0,0.2,0.2,0.4,0.4,0.5c0.8,0.4,1.3,0.4,1.3,1.1V42.7z"/>
	<path class="st0" d="M156.3,37.7c-1,0.7-1.8,0.9-1.8,1.6c0,0.4,0.8,0.9,1.3,0.9c0.2,0,0.4,0.1,0.5,0.1c0.6,0,1-0.3,2-0.3   c1,0,1.6,0.3,2.1,0.3c0.1,0,0.3-0.1,0.5-0.1c0.8-0.2,1.6-0.7,1.6-1.1c0-0.7-1.6-0.7-1.9-1.6v-9.4c1.3,0,2.1-0.4,3.7-0.7   c1,0,2,0.9,2,2.3v8c-0.5,0.7-1.8,0.7-1.8,1.6c0,0.4,0.8,0.9,2,0.9c0.8,0,1.3-0.2,1.8-0.2c0.6,0,1.3,0.1,1.9,0.1   c0.3,0,0.8,0,1.2-0.1c0.6-0.1,1-0.4,1-0.7c0-0.4-0.6-1-1.8-1.4v-9.9c0-2.5-2.6-3.2-4.4-3.2c-2.8,0-4.1,1.4-5.7,1.9v-5.5   c0.9-0.2,1.9-0.9,1.9-1.2c0-0.3-0.5-0.6-1.7-0.6h-5.1c-1.2,0-1.6,0.3-1.6,0.6c0,0.2,0.3,0.5,0.6,0.5c0.5,0.3,1,0.5,1.5,0.7V37.7z"/>
	<path class="st0" d="M176.1,37.7c-0.5,0.5-0.8,0.7-1.3,0.9c-0.3,0.1-0.4,0.3-0.4,0.5c0,0.3,0.7,0.8,1.2,0.9   c0.3,0.1,0.6,0.1,0.8,0.1c0.6,0,1.4-0.1,2-0.1c0.6,0,1.3,0.1,1.9,0.1c0.3,0,0.6,0,1-0.1c0.7-0.1,1.3-0.5,1.3-0.9   c0-0.2-0.1-0.4-0.5-0.5c-0.6-0.4-1.6-0.7-1.6-1.2V26.7c1.3-0.3,2-0.8,2-1.1c0-0.3-0.7-0.8-1.7-0.8h-5.4c-0.7,0-1.2,0.3-1.2,0.6   c0,0.4,0.8,1,1.9,1.2V37.7z M175.9,21.4c0,1.1,1.3,1.4,2.6,1.4c1.3,0,2.3-0.4,2.3-1.4c0-1.4-1.5-1.4-2.3-1.4   C176.4,20,175.9,20.5,175.9,21.4z"/>
	<path class="st0" d="M184.1,33.1c0,2.3,1,6.1,4.6,7c0.2,0,0.5,0.1,0.8,0.1c1.2,0,2.6-0.3,3.4-0.3c1,0,1.8,0.2,2.8,0.2   c3.6,0,4.7-2.3,4.7-3.6c0-1.4-0.8-2.1-2.1-2.7c-0.3,1.1-1.5,2.3-4.4,2.3c-3,0-6.3-1-6.3-4c0,0,0.1-0.3,0.1-0.4c0-2.7,1-5.7,4.7-5.7   c1.2,0,2.6,0.6,2.6,1.2v0.1c-0.1,0.3-0.4,0.4-0.6,0.4c-0.3,0-0.8-0.2-1.4-0.2c-0.6,0-1.2,0.6-1.2,1.1c0,0.3,0.3,0.7,0.6,0.9   c0.1-0.3,0.3-0.4,0.4-0.4c0.5,0,1,1.3,2.9,1.3c1.5,0,2.8-1.1,2.8-2.7c0-3.2-4.4-3.5-5.6-3.5C184.8,24.6,184.1,30.6,184.1,33.1"/>
	<path class="st1" d="M208,35.8c-0.2,1.7-3.7,2.1-3.7,2.9l0.1,0c0.3,1,2.6,1.2,4.7,1.2c1.2,0,2.7-0.1,3.6-0.1c1.8,0,4,0.2,5.9,0.2   c2.9,0,5.4-0.5,5.5-2.9c0-1.6-0.8-2.3-1.8-2.5c-0.5,1.4-2.4,1.4-3.9,1.4c-0.3,0-0.9,0-1.3,0c-2.1,0-4.9-0.2-4.9-1.9v-4.4   c-1-0.7-1.5-1.5-1.5-2.2c0-0.9,0.8-1.9,1.8-2.7v-3.4c0.3-0.9,1.6-1.1,2.6-1.1s2.8,0.3,2.8,1.1c0,0.9-3.6,2.5-4.9,3.6   c-0.8,0.7-1.6,1.4-1.6,2.3c0,0.9,0.8,2,2.6,2c1.3,0,2.1-0.2,3.1-0.7c0.3-0.1,0.7-0.2,1-0.2c0.6,0,1.1,0.3,1.1,0.9   c1-0.2,1.3-1.1,1.3-1.8c-0.3-1.5-1.6-2-2.9-2c-1.2,0-2.4,0.4-3,0.7c-0.2,0.1-0.5,0.2-0.6,0.2c-0.1,0-0.3-0.1-0.3-0.2   c0-0.2,0.3-0.6,1.1-0.9c1.5-0.8,8.6-3.5,8.6-5.3c0-0.9-0.8-1.4-4.2-1.4h-9.6c-2,0-4.9,0.5-4.9,1.4c0.3,1.4,3.3,1.1,3.3,2.7V35.8z"/>
	<path class="st1" d="M227.2,37.2c0,0.7-0.8,0.9-1.3,1.1c-0.2,0.1-0.4,0.4-0.4,0.6c0,0.3,0.3,0.6,0.6,0.7c0.5,0.2,1,0.3,1.5,0.3   c0.5,0,1.2-0.1,1.8-0.1c0.6,0,1.3,0.1,1.9,0.1c0.3,0,0.6,0,1-0.1c0.7-0.1,1.3-0.6,1.3-1c0-0.2-0.1-0.4-0.5-0.6   c-1.1-0.4-1.3-0.4-1.6-1.4v-8.3c0.5,0,1.7-0.6,2.6-0.6c0.4,0,0.8,0.2,0.9,0.6v0.2c0,0.7-0.9,1.8-0.9,2.4c0,0.5,0.5,0.8,1.6,0.9   c-0.1-0.1-0.2-0.1-0.2-0.2c0-0.2,0.9-0.4,1.7-0.7c1.5-0.7,2-2.5,2-3.4c0-1.8-0.8-3.2-3.1-3.2c-1.8,0-3.9,2.6-4.7,2.6   c0-0.7,0.8-0.9,1.3-1.4c0.2-0.2,0.3-0.4,0.3-0.5c0-0.2-0.3-0.5-1.1-0.5h-5.4c-0.9,0-1.2,0.3-1.2,0.5c0,0.3,0.3,0.6,0.7,0.7   c0.8,0.2,1,0.7,1,1.6V37.2z"/>
	<path class="st1" d="M252.9,35.4c-1.3,0-3.1,0.7-4.1,0.7c-2.4-0.3-2.9-1.1-2.9-2.5c0-1.7,3.4-3,5.2-3.7c0.8-0.3,1.1-0.8,1.1-1.3   c0-0.5-0.5-1-1.5-1h-0.3c-0.8,0-2.2,0.2-3.1,0.2c-0.4,0-0.9-0.1-1.1-0.2c-0.2-0.2-0.4-0.3-0.4-0.4c0-0.6,2-0.9,3.3-0.9   c2.8,0,3.9,0.9,3.9,3V35.4z M241,35.6c0,2.4,1.9,4.4,5.1,4.4c0.1,0,0.5-0.1,0.6-0.1c1.6,0,2.9-0.2,3.9-0.2c1,0,2.8,0.2,4.4,0.2   c2.5,0,3.7-0.5,3.7-1.1c0-0.3-0.5-0.9-1.4-1.2v-8c0-3.6-1.9-4.8-3.9-4.8c-1,0.1-2,0.1-2.8,0.1c-1.7,0-3.2-0.1-4.9-0.1   c-0.5,0-3.9,0.3-3.9,2.1c0,1.8,1.9,2.3,3.7,2.3c0.9,0,1.9-0.2,2.6-0.3h0.4c0.4,0,0.6,0.2,0.6,0.3c0,0.1-0.2,0.3-0.6,0.4   C244.6,30.8,241,32.4,241,35.6z"/>
	<path class="st2" d="M218.8,51.1h1.8l1.6,4.6l1.5-4.6h1.8l-2.3,6.3l-0.4,1.1c-0.2,0.4-0.3,0.7-0.4,0.9c-0.1,0.2-0.3,0.4-0.5,0.5   c-0.2,0.1-0.4,0.2-0.7,0.3c-0.3,0.1-0.6,0.1-0.9,0.1c-0.3,0-0.7,0-1-0.1l-0.2-1.3c0.3,0.1,0.5,0.1,0.7,0.1c0.4,0,0.7-0.1,0.9-0.4   c0.2-0.2,0.3-0.5,0.4-0.9L218.8,51.1z M218.4,51.1v1.4h-1.2v2.6c0,0.5,0,0.8,0,0.9c0,0.1,0.1,0.2,0.2,0.2c0.1,0.1,0.2,0.1,0.3,0.1   c0.2,0,0.4-0.1,0.7-0.2l0.1,1.3c-0.4,0.2-0.8,0.3-1.4,0.3c-0.3,0-0.6-0.1-0.8-0.2c-0.2-0.1-0.4-0.2-0.5-0.4   c-0.1-0.2-0.2-0.4-0.2-0.7c0-0.2-0.1-0.6-0.1-1.2v-2.8h-0.8v-1.4h0.8v-1.3l1.7-1v2.3H218.4z M211.9,57.6v-6.5h1.7v6.5H211.9z    M211.9,50.3v-1.6h1.7v1.6H211.9z M204.4,55.8l1.7-0.3c0.1,0.3,0.2,0.6,0.4,0.8c0.2,0.2,0.5,0.3,0.9,0.3c0.4,0,0.8-0.1,1-0.2   c0.2-0.1,0.2-0.3,0.2-0.5c0-0.1,0-0.2-0.1-0.3c-0.1-0.1-0.3-0.2-0.6-0.2c-1.4-0.3-2.3-0.6-2.6-0.8c-0.5-0.4-0.8-0.8-0.8-1.5   c0-0.6,0.2-1,0.7-1.4c0.4-0.4,1.1-0.6,2.1-0.6c0.9,0,1.6,0.1,2,0.4c0.4,0.3,0.7,0.7,0.9,1.3l-1.6,0.3c-0.1-0.3-0.2-0.5-0.4-0.6   c-0.2-0.1-0.5-0.2-0.8-0.2c-0.5,0-0.8,0.1-1,0.2c-0.1,0.1-0.2,0.2-0.2,0.3c0,0.1,0.1,0.2,0.2,0.3c0.2,0.1,0.7,0.3,1.6,0.5   c0.9,0.2,1.6,0.5,1.9,0.8c0.4,0.3,0.5,0.7,0.5,1.3c0,0.6-0.2,1.1-0.7,1.5c-0.5,0.4-1.2,0.6-2.2,0.6c-0.9,0-1.6-0.2-2.1-0.5   C204.9,56.9,204.5,56.4,204.4,55.8z M201.7,57.6H200v-6.5h1.6v0.9c0.3-0.4,0.5-0.7,0.7-0.9c0.2-0.1,0.5-0.2,0.7-0.2   c0.4,0,0.8,0.1,1.1,0.3l-0.5,1.5c-0.3-0.2-0.6-0.3-0.8-0.3c-0.2,0-0.4,0.1-0.6,0.2c-0.2,0.1-0.3,0.4-0.4,0.7   c-0.1,0.3-0.1,1.1-0.1,2.2V57.6z M197,53.8c0-0.5-0.1-0.9-0.4-1.1c-0.2-0.3-0.5-0.4-0.9-0.4c-0.4,0-0.7,0.1-0.9,0.4   c-0.2,0.3-0.4,0.6-0.4,1.1H197z M196.9,55.6l1.7,0.3c-0.2,0.6-0.6,1.1-1,1.4c-0.5,0.3-1.1,0.5-1.8,0.5c-1.1,0-2-0.4-2.5-1.1   c-0.4-0.6-0.6-1.3-0.6-2.2c0-1.1,0.3-1.9,0.8-2.5c0.6-0.6,1.3-0.9,2.1-0.9c1,0,1.7,0.3,2.3,1c0.6,0.6,0.8,1.6,0.8,2.9h-4.3   c0,0.5,0.2,0.9,0.4,1.2c0.3,0.3,0.6,0.4,1,0.4c0.3,0,0.5-0.1,0.7-0.2C196.7,56.1,196.8,55.9,196.9,55.6z M188,57.6l-2.6-6.5h1.8   l1.2,3.3l0.4,1.1c0.1-0.3,0.2-0.5,0.2-0.6c0.1-0.2,0.1-0.4,0.2-0.6l1.2-3.3h1.8l-2.6,6.5H188z M182.7,57.6v-6.5h1.7v6.5H182.7z    M182.7,50.3v-1.6h1.7v1.6H182.7z M181,57.6h-1.7v-3.3c0-0.7,0-1.2-0.1-1.4c-0.1-0.2-0.2-0.4-0.4-0.5c-0.2-0.1-0.4-0.2-0.6-0.2   c-0.3,0-0.6,0.1-0.8,0.2c-0.2,0.2-0.4,0.4-0.5,0.6c-0.1,0.3-0.1,0.8-0.1,1.5v2.9H175v-6.5h1.6v1c0.6-0.7,1.3-1.1,2.2-1.1   c0.4,0,0.7,0.1,1,0.2c0.3,0.1,0.6,0.3,0.7,0.5c0.2,0.2,0.3,0.5,0.3,0.7c0.1,0.3,0.1,0.7,0.1,1.2V57.6z M166,48.7h1.8v4.9   c0,0.8,0,1.3,0.1,1.5c0.1,0.4,0.3,0.7,0.5,0.9c0.3,0.2,0.7,0.3,1.2,0.3c0.5,0,0.9-0.1,1.1-0.3c0.3-0.2,0.4-0.5,0.5-0.8   c0.1-0.3,0.1-0.8,0.1-1.5v-5h1.8v4.7c0,1.1,0,1.8-0.1,2.3c-0.1,0.4-0.3,0.8-0.5,1.1c-0.3,0.3-0.6,0.5-1.1,0.7   c-0.4,0.2-1,0.3-1.7,0.3c-0.9,0-1.5-0.1-1.9-0.3c-0.4-0.2-0.8-0.5-1-0.8c-0.3-0.3-0.4-0.6-0.5-1c-0.1-0.5-0.2-1.3-0.2-2.3V48.7z    M159.4,53.8c0-0.5-0.1-0.9-0.4-1.1c-0.2-0.3-0.5-0.4-0.9-0.4c-0.4,0-0.7,0.1-0.9,0.4c-0.2,0.3-0.4,0.6-0.4,1.1H159.4z M159.3,55.6   l1.7,0.3c-0.2,0.6-0.6,1.1-1,1.4c-0.5,0.3-1.1,0.5-1.8,0.5c-1.1,0-2-0.4-2.5-1.1c-0.4-0.6-0.6-1.3-0.6-2.2c0-1.1,0.3-1.9,0.8-2.5   c0.6-0.6,1.3-0.9,2.1-0.9c1,0,1.7,0.3,2.3,1c0.6,0.6,0.8,1.6,0.8,2.9h-4.3c0,0.5,0.2,0.9,0.4,1.2c0.3,0.3,0.6,0.4,1,0.4   c0.3,0,0.5-0.1,0.7-0.2C159.1,56.1,159.2,55.9,159.3,55.6z M149.5,54.3c0,0.7,0.1,1.2,0.3,1.5c0.3,0.5,0.7,0.7,1.2,0.7   c0.4,0,0.7-0.2,1-0.5c0.3-0.3,0.4-0.8,0.4-1.5c0-0.7-0.1-1.3-0.4-1.6c-0.3-0.3-0.6-0.5-1-0.5c-0.4,0-0.8,0.2-1,0.5   C149.7,53.1,149.5,53.6,149.5,54.3z M147.8,57.6v-9h1.7v3.2c0.5-0.6,1.2-0.9,1.9-0.9c0.8,0,1.4,0.3,2,0.9c0.5,0.6,0.8,1.4,0.8,2.5   c0,1.1-0.3,2-0.8,2.6c-0.5,0.6-1.2,0.9-1.9,0.9c-0.4,0-0.7-0.1-1.1-0.3c-0.4-0.2-0.7-0.5-0.9-0.8v1H147.8z M138.1,54.4   c0,0.6,0.2,1.1,0.5,1.5c0.3,0.3,0.7,0.5,1.1,0.5c0.4,0,0.8-0.2,1.1-0.5c0.3-0.3,0.5-0.8,0.5-1.5c0-0.6-0.2-1.1-0.5-1.5   c-0.3-0.3-0.7-0.5-1.1-0.5c-0.4,0-0.8,0.2-1.1,0.5C138.3,53.3,138.1,53.7,138.1,54.4z M136.4,54.3c0-0.6,0.1-1.1,0.4-1.7   c0.3-0.5,0.7-0.9,1.2-1.2c0.5-0.3,1.1-0.4,1.7-0.4c1,0,1.8,0.3,2.4,1c0.6,0.6,0.9,1.4,0.9,2.4c0,1-0.3,1.8-0.9,2.4   c-0.6,0.6-1.4,1-2.4,1c-0.6,0-1.2-0.1-1.7-0.4c-0.5-0.3-0.9-0.7-1.2-1.2C136.5,55.7,136.4,55,136.4,54.3z M135.6,51.1v1.4h-1.2v2.6   c0,0.5,0,0.8,0,0.9c0,0.1,0.1,0.2,0.2,0.2c0.1,0.1,0.2,0.1,0.3,0.1c0.2,0,0.4-0.1,0.7-0.2l0.1,1.3c-0.4,0.2-0.8,0.3-1.4,0.3   c-0.3,0-0.6-0.1-0.8-0.2c-0.2-0.1-0.4-0.2-0.5-0.4c-0.1-0.2-0.2-0.4-0.2-0.7c0-0.2-0.1-0.6-0.1-1.2v-2.8h-0.8v-1.4h0.8v-1.3l1.7-1   v2.3H135.6z M122.9,54.3c0,0.7,0.1,1.2,0.3,1.5c0.3,0.5,0.7,0.7,1.2,0.7c0.4,0,0.7-0.2,1-0.5c0.3-0.3,0.4-0.8,0.4-1.5   c0-0.7-0.1-1.3-0.4-1.6c-0.3-0.3-0.6-0.5-1-0.5c-0.4,0-0.7,0.2-1,0.5C123,53.1,122.9,53.6,122.9,54.3z M127.4,57.6h-1.6v-1   c-0.3,0.4-0.6,0.6-0.9,0.8c-0.4,0.2-0.7,0.3-1.1,0.3c-0.7,0-1.4-0.3-1.9-0.9c-0.5-0.6-0.8-1.4-0.8-2.5c0-1.1,0.3-1.9,0.8-2.5   c0.5-0.6,1.2-0.9,2-0.9c0.7,0,1.4,0.3,1.9,0.9v-3.2h1.7V57.6z M118.4,53.8c0-0.5-0.1-0.9-0.4-1.1c-0.2-0.3-0.5-0.4-0.9-0.4   c-0.4,0-0.7,0.1-0.9,0.4c-0.2,0.3-0.4,0.6-0.4,1.1H118.4z M118.3,55.6l1.7,0.3c-0.2,0.6-0.6,1.1-1,1.4c-0.5,0.3-1.1,0.5-1.8,0.5   c-1.1,0-2-0.4-2.5-1.1c-0.4-0.6-0.6-1.3-0.6-2.2c0-1.1,0.3-1.9,0.8-2.5c0.6-0.6,1.3-0.9,2.1-0.9c1,0,1.7,0.3,2.3,1   c0.6,0.6,0.8,1.6,0.8,2.9h-4.3c0,0.5,0.2,0.9,0.4,1.2c0.3,0.3,0.6,0.4,1,0.4c0.3,0,0.5-0.1,0.7-0.2C118,56.1,118.2,55.9,118.3,55.6   z M103.2,51.1h1.6V52c0.6-0.7,1.2-1,2-1c0.4,0,0.8,0.1,1.1,0.3c0.3,0.2,0.6,0.4,0.8,0.8c0.3-0.3,0.6-0.6,0.9-0.8   c0.3-0.2,0.7-0.3,1.1-0.3c0.5,0,0.9,0.1,1.2,0.3c0.3,0.2,0.6,0.5,0.7,0.9c0.1,0.3,0.2,0.7,0.2,1.3v4.1h-1.7v-3.7   c0-0.6-0.1-1.1-0.2-1.2c-0.2-0.2-0.4-0.4-0.7-0.4c-0.2,0-0.5,0.1-0.7,0.2c-0.2,0.1-0.4,0.4-0.5,0.6c-0.1,0.3-0.1,0.7-0.1,1.3v3.1   h-1.7v-3.6c0-0.6,0-1-0.1-1.2c-0.1-0.2-0.2-0.3-0.3-0.4c-0.1-0.1-0.3-0.1-0.5-0.1c-0.3,0-0.5,0.1-0.7,0.2c-0.2,0.1-0.4,0.3-0.5,0.6   c-0.1,0.3-0.1,0.7-0.1,1.3v3.2h-1.7V51.1z M100.3,53.8c0-0.5-0.1-0.9-0.4-1.1c-0.2-0.3-0.5-0.4-0.9-0.4c-0.4,0-0.7,0.1-0.9,0.4   c-0.2,0.3-0.4,0.6-0.4,1.1H100.3z M100.2,55.6l1.7,0.3c-0.2,0.6-0.6,1.1-1,1.4c-0.5,0.3-1.1,0.5-1.8,0.5c-1.1,0-2-0.4-2.5-1.1   c-0.4-0.6-0.6-1.3-0.6-2.2c0-1.1,0.3-1.9,0.8-2.5c0.6-0.6,1.3-0.9,2.1-0.9c1,0,1.7,0.3,2.3,1c0.6,0.6,0.8,1.6,0.8,2.9h-4.3   c0,0.5,0.2,0.9,0.4,1.2c0.3,0.3,0.6,0.4,1,0.4c0.3,0,0.5-0.1,0.7-0.2C99.9,56.1,100.1,55.9,100.2,55.6z M93.3,53.8   c0-0.5-0.1-0.9-0.4-1.1c-0.2-0.3-0.5-0.4-0.9-0.4c-0.4,0-0.7,0.1-0.9,0.4c-0.2,0.3-0.4,0.6-0.4,1.1H93.3z M93.2,55.6l1.7,0.3   c-0.2,0.6-0.6,1.1-1,1.4c-0.5,0.3-1.1,0.5-1.8,0.5c-1.1,0-2-0.4-2.5-1.1c-0.4-0.6-0.6-1.3-0.6-2.2c0-1.1,0.3-1.9,0.8-2.5   c0.6-0.6,1.3-0.9,2.1-0.9c1,0,1.7,0.3,2.3,1c0.6,0.6,0.8,1.6,0.8,2.9h-4.3c0,0.5,0.2,0.9,0.4,1.2c0.3,0.3,0.6,0.4,1,0.4   c0.3,0,0.5-0.1,0.7-0.2C93,56.1,93.1,55.9,93.2,55.6z M82.2,50.2v5.9h1.3c0.5,0,0.9,0,1.1-0.1c0.3-0.1,0.5-0.2,0.7-0.4   c0.2-0.2,0.4-0.5,0.5-0.9c0.1-0.4,0.2-0.9,0.2-1.6c0-0.7-0.1-1.2-0.2-1.6c-0.1-0.4-0.3-0.7-0.5-0.9c-0.2-0.2-0.5-0.3-0.8-0.4   c-0.3-0.1-0.7-0.1-1.5-0.1H82.2z M80.4,48.7h3.3c0.7,0,1.3,0.1,1.7,0.2c0.5,0.2,1,0.4,1.3,0.8c0.4,0.4,0.7,0.9,0.9,1.5   c0.2,0.6,0.3,1.3,0.3,2.1c0,0.7-0.1,1.4-0.3,1.9c-0.2,0.7-0.5,1.2-1,1.6c-0.3,0.3-0.7,0.5-1.3,0.7c-0.4,0.1-0.9,0.2-1.6,0.2h-3.4   V48.7z"/>
</g>
<path class="st3" d="M0.1,43.2L2,42.6c-0.1-0.7-0.2-1.4-0.3-2.2h-2c-0.1-0.9-0.1-1.7-0.1-2.6c0-0.9,0-1.7,0.1-2.6h2  c0.1-0.7,0.2-1.5,0.3-2.2l-1.9-0.5c0.3-1.7,0.8-3.4,1.3-5l1.9,0.5c0.3-0.7,0.5-1.4,0.8-2l-1.7-1C3.2,23.5,4.1,22,5,20.6l1.7,1  c0.4-0.6,0.9-1.2,1.3-1.7l-1.4-1.4c1.1-1.3,2.3-2.5,3.7-3.7l1.4,1.4c0.6-0.5,1.1-0.9,1.7-1.3l-1-1.7c1.4-1,2.9-1.9,4.5-2.6l1,1.7  c0.7-0.3,1.3-0.6,2-0.8l-0.5-1.9c1.6-0.6,3.3-1,5-1.3l0.5,1.9c0.7-0.1,1.4-0.2,2.2-0.3v-2c0.9-0.1,1.7-0.1,2.6-0.1  c0.9,0,1.7,0,2.6,0.1v2c0.7,0.1,1.5,0.2,2.2,0.3l0.5-1.9c1.7,0.3,3.4,0.8,5,1.3l-0.5,1.9c0.7,0.3,1.4,0.5,2,0.8l1-1.7  c1.6,0.7,3.1,1.6,4.5,2.6l-1,1.7c0.6,0.4,1.2,0.9,1.7,1.3l1.4-1.4c1.3,1.1,2.5,2.3,3.7,3.7l-1.4,1.4c0.5,0.6,0.9,1.1,1.3,1.7l1.7-1  c1,1.4,1.9,2.9,2.6,4.5l-1.7,1c0.3,0.7,0.6,1.3,0.8,2l1.9-0.5c0.6,1.6,1,3.3,1.3,5l-1.9,0.5c0.1,0.7,0.2,1.4,0.3,2.2h2  c0.1,0.9,0.1,1.7,0.1,2.6c0,0.9,0,1.7-0.1,2.6h-2c-0.1,0.7-0.2,1.5-0.3,2.2l1.9,0.5c-0.3,1.7-0.8,3.4-1.3,5l-1.9-0.5  c-0.3,0.7-0.5,1.4-0.8,2l1.7,1c-0.7,1.6-1.6,3.1-2.6,4.5l-1.7-1c-0.4,0.6-0.9,1.2-1.3,1.7l1.4,1.4c-1.1,1.3-2.3,2.5-3.7,3.7  l-1.4-1.4c-0.6,0.5-1.1,0.9-1.7,1.3l1,1.7c-1.4,1-2.9,1.9-4.5,2.6l-1-1.7c-0.7,0.3-1.3,0.6-2,0.8l0.5,1.9c-1.6,0.6-3.3,1-5,1.3  l-0.5-1.9c-0.7,0.1-1.4,0.2-2.2,0.3v2C31.5,68,30.6,68,29.8,68c-0.9,0-1.7,0-2.6-0.1v-2c-0.7-0.1-1.5-0.2-2.2-0.3l-0.5,1.9  c-1.7-0.3-3.4-0.8-5-1.3l0.5-1.9c-0.7-0.3-1.4-0.5-2-0.8l-1,1.7c-1.6-0.7-3.1-1.6-4.5-2.6l1-1.7c-0.6-0.4-1.2-0.9-1.7-1.3L10.4,61  c-1.3-1.1-2.5-2.3-3.7-3.7l1.4-1.4c-0.5-0.6-0.9-1.1-1.3-1.7l-1.7,1c-1-1.4-1.9-2.9-2.6-4.5l1.7-1c-0.3-0.7-0.6-1.3-0.8-2l-1.9,0.5  C0.8,46.5,0.4,44.9,0.1,43.2z"/>
<path class="st4" d="M0.1,43.2L2,42.6c-0.1-0.7-0.2-1.4-0.3-2.2h-2c-0.1-0.9-0.1-1.7-0.1-2.6c0-0.9,0-1.7,0.1-2.6h2  c0.1-0.7,0.2-1.5,0.3-2.2l-1.9-0.5c0.3-1.7,0.8-3.4,1.3-5l1.9,0.5c0.3-0.7,0.5-1.4,0.8-2l-1.7-1C3.2,23.5,4.1,22,5,20.6l1.7,1  c0.4-0.6,0.9-1.2,1.3-1.7l-1.4-1.4c1.1-1.3,2.3-2.5,3.7-3.7l1.4,1.4c0.6-0.5,1.1-0.9,1.7-1.3l-1-1.7c1.4-1,2.9-1.9,4.5-2.6l1,1.7  c0.7-0.3,1.3-0.6,2-0.8l-0.5-1.9c1.6-0.6,3.3-1,5-1.3l0.5,1.9c0.7-0.1,1.4-0.2,2.2-0.3v-2c0.9-0.1,1.7-0.1,2.6-0.1  c0.9,0,1.7,0,2.6,0.1v2c0.7,0.1,1.5,0.2,2.2,0.3l0.5-1.9c1.7,0.3,3.4,0.8,5,1.3l-0.5,1.9c0.7,0.3,1.4,0.5,2,0.8l1-1.7  c1.6,0.7,3.1,1.6,4.5,2.6l-1,1.7c0.6,0.4,1.2,0.9,1.7,1.3l1.4-1.4c1.3,1.1,2.5,2.3,3.7,3.7l-1.4,1.4c0.5,0.6,0.9,1.1,1.3,1.7l1.7-1  c1,1.4,1.9,2.9,2.6,4.5l-1.7,1c0.3,0.7,0.6,1.3,0.8,2l1.9-0.5c0.6,1.6,1,3.3,1.3,5l-1.9,0.5c0.1,0.7,0.2,1.4,0.3,2.2h2  c0.1,0.9,0.1,1.7,0.1,2.6c0,0.9,0,1.7-0.1,2.6h-2c-0.1,0.7-0.2,1.5-0.3,2.2l1.9,0.5c-0.3,1.7-0.8,3.4-1.3,5l-1.9-0.5  c-0.3,0.7-0.5,1.4-0.8,2l1.7,1c-0.7,1.6-1.6,3.1-2.6,4.5l-1.7-1c-0.4,0.6-0.9,1.2-1.3,1.7l1.4,1.4c-1.1,1.3-2.3,2.5-3.7,3.7  l-1.4-1.4c-0.6,0.5-1.1,0.9-1.7,1.3l1,1.7c-1.4,1-2.9,1.9-4.5,2.6l-1-1.7c-0.7,0.3-1.3,0.6-2,0.8l0.5,1.9c-1.6,0.6-3.3,1-5,1.3  l-0.5-1.9c-0.7,0.1-1.4,0.2-2.2,0.3v2C31.5,68,30.6,68,29.8,68c-0.9,0-1.7,0-2.6-0.1v-2c-0.7-0.1-1.5-0.2-2.2-0.3l-0.5,1.9  c-1.7-0.3-3.4-0.8-5-1.3l0.5-1.9c-0.7-0.3-1.4-0.5-2-0.8l-1,1.7c-1.6-0.7-3.1-1.6-4.5-2.6l1-1.7c-0.6-0.4-1.2-0.9-1.7-1.3L10.4,61  c-1.3-1.1-2.5-2.3-3.7-3.7l1.4-1.4c-0.5-0.6-0.9-1.1-1.3-1.7l-1.7,1c-1-1.4-1.9-2.9-2.6-4.5l1.7-1c-0.3-0.7-0.6-1.3-0.8-2l-1.9,0.5  C0.8,46.5,0.4,44.9,0.1,43.2z"/>
<path class="st5" d="M0.1,43.2L2,42.6c-0.1-0.7-0.2-1.4-0.3-2.2h-2c-0.1-0.9-0.1-1.7-0.1-2.6c0-0.6,0-1.3,0.1-1.9L0,35.7l2.6,0.2  l54,0l3-0.3l0.3,0.4c0,0.6,0.1,1.3,0.1,1.9c0,0.9,0,1.7-0.1,2.6h-2c-0.1,0.7-0.2,1.5-0.3,2.2l1.9,0.5c-0.3,1.7-0.8,3.4-1.3,5  l-1.9-0.5c-0.3,0.7-0.5,1.4-0.8,2l1.7,1c-0.7,1.6-1.6,3.1-2.6,4.5l-1.7-1c-0.4,0.6-0.9,1.2-1.3,1.7l1.4,1.4  c-1.1,1.3-2.3,2.5-3.7,3.7l-1.4-1.4c-0.6,0.5-1.1,0.9-1.7,1.3l1,1.7c-1.4,1-2.9,1.9-4.5,2.6l-1-1.7c-0.7,0.3-1.3,0.6-2,0.8l0.5,1.9  c-1.6,0.6-3.3,1-5,1.3l-0.5-1.9c-0.7,0.1-1.4,0.2-2.2,0.3v2C31.5,68,30.6,68,29.8,68c-0.9,0-1.7,0-2.6-0.1v-2  c-0.7-0.1-1.5-0.2-2.2-0.3l-0.5,1.9c-1.7-0.3-3.4-0.8-5-1.3l0.5-1.9c-0.7-0.3-1.4-0.5-2-0.8l-1,1.7c-1.6-0.7-3.1-1.6-4.5-2.6l1-1.7  c-0.6-0.4-1.2-0.9-1.7-1.3L10.4,61c-1.3-1.1-2.5-2.3-3.7-3.7l1.4-1.4c-0.5-0.6-0.9-1.1-1.3-1.7l-1.7,1c-1-1.4-1.9-2.9-2.6-4.5l1.7-1  c-0.3-0.7-0.6-1.3-0.8-2l-1.9,0.5C0.8,46.5,0.4,44.9,0.1,43.2z"/>
<path class="st6" d="M0.1,43.2L2,42.6c-0.1-0.7-0.2-1.4-0.3-2.2h-2c-0.1-0.9-0.1-1.7-0.1-2.6c0-0.6,0-1.3,0.1-1.9L0,35.7l2.6,0.2  l54,0l3-0.3l0.3,0.4c0,0.6,0.1,1.3,0.1,1.9c0,0.9,0,1.7-0.1,2.6h-2c-0.1,0.7-0.2,1.5-0.3,2.2l1.9,0.5c-0.3,1.7-0.8,3.4-1.3,5  l-1.9-0.5c-0.3,0.7-0.5,1.4-0.8,2l1.7,1c-0.7,1.6-1.6,3.1-2.6,4.5l-1.7-1c-0.4,0.6-0.9,1.2-1.3,1.7l1.4,1.4  c-1.1,1.3-2.3,2.5-3.7,3.7l-1.4-1.4c-0.6,0.5-1.1,0.9-1.7,1.3l1,1.7c-1.4,1-2.9,1.9-4.5,2.6l-1-1.7c-0.7,0.3-1.3,0.6-2,0.8l0.5,1.9  c-1.6,0.6-3.3,1-5,1.3l-0.5-1.9c-0.7,0.1-1.4,0.2-2.2,0.3v2C31.5,68,30.6,68,29.8,68c-0.9,0-1.7,0-2.6-0.1v-2  c-0.7-0.1-1.5-0.2-2.2-0.3l-0.5,1.9c-1.7-0.3-3.4-0.8-5-1.3l0.5-1.9c-0.7-0.3-1.4-0.5-2-0.8l-1,1.7c-1.6-0.7-3.1-1.6-4.5-2.6l1-1.7  c-0.6-0.4-1.2-0.9-1.7-1.3L10.4,61c-1.3-1.1-2.5-2.3-3.7-3.7l1.4-1.4c-0.5-0.6-0.9-1.1-1.3-1.7l-1.7,1c-1-1.4-1.9-2.9-2.6-4.5l1.7-1  c-0.3-0.7-0.6-1.3-0.8-2l-1.9,0.5C0.8,46.5,0.4,44.9,0.1,43.2z"/>
<path class="st3" d="M29.8,10.4c14.5,0,26.4,11.3,27.4,25.6h-7.5c-1-10.2-9.5-18.1-19.9-18.1c-10.4,0-19,7.9-19.9,18.1H2.3  C3.3,21.7,15.2,10.4,29.8,10.4"/>
<path class="st3" d="M29.8,17.7c11.1,0,20.2,9,20.2,20.2s-9,20.2-20.2,20.2c-11.1,0-20.2-9-20.2-20.2S18.6,17.7,29.8,17.7z"/>
<path class="st4" d="M29.8,17.7c11.1,0,20.2,9,20.2,20.2s-9,20.2-20.2,20.2c-11.1,0-20.2-9-20.2-20.2S18.6,17.7,29.8,17.7z"/>
<path class="st7" d="M30.4,18.7C29.5,25.5,12,29,14.3,42.5c0.3,1.3,0.6,2,1.5,3.1c3.5,4.5,7.3,5.9,14,7.3  C48,49.7,48.2,36.5,41.2,35.2c-4.6-0.5-8.6,0.3-11.7,3.1c6.6-4.6,14.4-1.6,11.4,5.3c-1.2,2.5-6.5,6.1-11.1,7  c-10.7-2.4-16.5-10.1-8.2-19.2C28.2,25.3,30.5,22.2,30.4,18.7"/>
<path class="st8" d="M30,23.5c-3.4,7.2-14.9,10.8-10.7,19.8c2.6,3.6,6.3,5.6,10.5,6.6c16.1-4.9,12-16.2,3.4-12.9  c7.1-0.9,7.3,7.6-3.4,11c-6.7-1.5-10.1-5.5-8-10.9C23.9,31.6,28.5,30.4,30,23.5"/>
<path class="st8" d="M21.6,39.9c2.8-4.8,11.1-4,8.7-16.4C30.5,33.6,21.8,34.7,21.6,39.9"/>
<rect x="26.2" y="53.6" class="st7" width="7" height="1.4"/>
<rect x="27.2" y="55.6" class="st7" width="4.9" height="1.4"/>
<path class="st8" d="M30.8,21.7c2.8,5.1,3.4,10-2.5,14.4C32,31.5,32.5,26.7,30.8,21.7"/>
<path class="st9" d="M53.4,33l-0.9,0.2l-0.1-0.5l0.9-0.2l1.5-1.2l0.1,0.6l-1,0.7l1.2,0.2l0.1,0.6L53.4,33z M54.7,31.4l-0.5,0.1  L54.2,31L52,31.6l-0.1-0.5l2.1-0.6L53.9,30l0.5-0.1L54.7,31.4z M51.5,29.9L54,29l0.2,0.5l-2.5,0.9L51.5,29.9z M51.4,29.6l-0.5-1.3  l2.5-1l0.2,0.5l-2.1,0.8l0.3,0.8L51.4,29.6z M50.5,26.4l-0.6,0.1L49.7,26l2.9-0.3l0.2,0.4l-1.9,2.2l-0.3-0.5l0.4-0.5L50.5,26.4z   M51.3,26.9l0.6-0.7L51,26.3L51.3,26.9z M49.6,25.9l-0.8-1.2l2.3-1.5l0.8,1.2l-0.4,0.3L51,23.9l-0.5,0.3l0.5,0.8l-0.4,0.3l-0.5-0.8  l-0.6,0.4l0.5,0.8L49.6,25.9z M47.8,23.4L47.5,23l2.1-1.7l0.4,0.5c0.1,0.2,0.2,0.3,0.3,0.4c0.1,0.1,0.1,0.2,0.1,0.2  c0,0.2,0,0.3,0,0.5c0,0.1-0.1,0.3-0.3,0.4c-0.2,0.1-0.3,0.2-0.5,0.2c-0.2,0-0.4-0.1-0.5-0.2l-0.4,1.2L48.3,24l0.5-1.3L47.8,23.4z   M48.9,22.6L48.9,22.6c0.2,0.3,0.3,0.4,0.5,0.4c0.1,0,0.3,0,0.4-0.1c0.1-0.1,0.2-0.2,0.2-0.3c0-0.1-0.1-0.2-0.2-0.4L49.6,22  L48.9,22.6z M45.5,19c0.1-0.1,0.2-0.2,0.3-0.3c0.1-0.1,0.2-0.1,0.4-0.1c0.2-0.1,0.5,0,0.7,0c0.2,0.1,0.4,0.2,0.6,0.3  c0.1,0.1,0.2,0.3,0.3,0.4c0.1,0.2,0.1,0.3,0.1,0.5c0,0.2,0,0.4-0.1,0.5c-0.1,0.2-0.2,0.3-0.3,0.5c-0.1,0.1-0.3,0.2-0.4,0.3  c-0.2,0.1-0.3,0.1-0.5,0.1c-0.2,0-0.4,0-0.5-0.1c-0.2-0.1-0.3-0.2-0.5-0.3c-0.1-0.1-0.3-0.3-0.3-0.5c-0.1-0.2-0.1-0.3-0.1-0.5  c0-0.2,0-0.4,0.1-0.5C45.3,19.3,45.4,19.2,45.5,19z M45.9,19.4c-0.1,0.1-0.1,0.2-0.2,0.3c0,0.1-0.1,0.2-0.1,0.3c0,0.1,0,0.2,0.1,0.3  c0,0.1,0.1,0.2,0.2,0.3c0.2,0.2,0.4,0.2,0.6,0.2c0.2,0,0.4-0.1,0.6-0.3c0.2-0.2,0.2-0.4,0.2-0.6c0-0.2-0.1-0.4-0.3-0.6  c-0.2-0.2-0.4-0.2-0.6-0.2C46.3,19.1,46.1,19.2,45.9,19.4z M46.1,17.8l-0.3,0.4l-0.4-0.3L44,19.7l-0.4-0.3l1.4-1.7l-0.4-0.3l0.3-0.4  L46.1,17.8z M41.7,18l-0.4-0.3l1.4-2.3l0.4,0.3l0,2l0.9-1.5l0.4,0.3L43,18.9l-0.4-0.3l0-2.1L41.7,18z M40.4,17.3l1.2-2.4l0.5,0.2  l-1.2,2.4L40.4,17.3z M37.9,15.3l0.4,0.2l0,0c0,0.1,0,0.2,0,0.3c0,0.1,0.1,0.1,0.2,0.2c0.1,0,0.2,0,0.3,0c0.1,0,0.1-0.1,0.2-0.2  c0.1-0.2,0-0.3-0.2-0.5c0,0,0,0-0.1,0c-0.2-0.1-0.3-0.3-0.3-0.4c-0.1-0.1,0-0.3,0-0.5c0.1-0.2,0.2-0.4,0.4-0.5  c0.2-0.1,0.4-0.1,0.6,0c0.2,0.1,0.3,0.2,0.4,0.4c0.1,0.2,0.1,0.4,0,0.6l-0.4-0.2l0,0c0-0.1,0-0.2,0-0.2c0-0.1-0.1-0.1-0.2-0.1  c-0.1,0-0.2,0-0.2,0c-0.1,0-0.1,0.1-0.1,0.2c0,0,0,0.1,0,0.1c0,0,0,0.1,0,0.1c0,0.1,0.1,0.2,0.2,0.3c0.1,0,0.1,0.1,0.1,0.1  c0.1,0.1,0.2,0.3,0.3,0.4c0,0.1,0,0.3,0,0.5c-0.1,0.3-0.3,0.4-0.5,0.5c-0.2,0.1-0.4,0.1-0.7,0c-0.2-0.1-0.4-0.2-0.5-0.4  C37.8,15.8,37.8,15.5,37.9,15.3z M35.1,15.3l-0.5-0.1l0.7-2.6l0.7,0.2l0.2,2.1l1.2-1.7l0.7,0.2l-0.7,2.6l-0.5-0.1l0.5-1.9l-1.2,1.7  l-0.4-0.1l-0.2-2.1L35.1,15.3z M32.8,14.4l-0.3,0.5L32,14.8l1.4-2.5l0.5,0.1l0.7,2.8l-0.6-0.1l-0.1-0.6L32.8,14.4z M33.7,14  l-0.2-0.9l-0.4,0.8L33.7,14z M32,14.8l-1.4-0.1l0.2-2.7l1.4,0.1l0,0.5l-0.9-0.1l0,0.6l0.9,0.1l0,0.5l-0.9-0.1l0,0.7l0.9,0.1L32,14.8  z M28.9,14.8l-0.5,0l0-2.7l0.6,0c0.2,0,0.4,0,0.5,0c0.1,0,0.2,0,0.3,0.1c0.2,0.1,0.3,0.2,0.4,0.3c0.1,0.1,0.1,0.3,0.1,0.4  c0,0.2-0.1,0.4-0.2,0.5c-0.1,0.1-0.3,0.2-0.5,0.3l0.7,1l-0.6,0l-0.7-1.2L28.9,14.8z M28.9,13.4l0.1,0c0.2,0,0.4,0,0.5-0.1  c0.1-0.1,0.2-0.2,0.2-0.3c0-0.1-0.1-0.2-0.1-0.3c-0.1-0.1-0.2-0.1-0.4-0.1l-0.2,0L28.9,13.4z M26.7,14.9L25.8,15l-0.3-2.7l0.9-0.1  c0.2,0,0.4,0,0.6,0c0.2,0,0.3,0.1,0.4,0.2c0.1,0.1,0.3,0.2,0.3,0.4c0.1,0.2,0.1,0.4,0.2,0.6c0,0.2,0,0.5-0.1,0.7  c-0.1,0.2-0.2,0.4-0.3,0.5c-0.1,0.1-0.2,0.1-0.3,0.2C27,14.9,26.9,14.9,26.7,14.9z M26.6,14.5c0.3,0,0.5-0.1,0.6-0.3  c0.1-0.2,0.2-0.4,0.1-0.7c0-0.3-0.1-0.5-0.3-0.6c-0.2-0.1-0.4-0.2-0.7-0.2l-0.3,0l0.2,1.8L26.6,14.5z M24,14C24,14,24,14,24,14  C24,14,24,14,24,14c0.1,0.2,0.1,0.3,0.1,0.4c0,0.1,0,0.2,0,0.3c-0.1,0.3-0.2,0.5-0.3,0.7c-0.2,0.2-0.4,0.3-0.7,0.4  c-0.2,0.1-0.4,0.1-0.6,0c-0.2,0-0.4-0.1-0.5-0.2c-0.1-0.1-0.3-0.2-0.4-0.4c-0.1-0.1-0.2-0.3-0.2-0.5c0-0.2-0.1-0.4,0-0.5  c0-0.2,0.1-0.4,0.2-0.5c0.1-0.2,0.2-0.3,0.4-0.4c0.1-0.1,0.3-0.2,0.5-0.2c0.3-0.1,0.5-0.1,0.8,0c0.2,0.1,0.4,0.2,0.6,0.5l-0.6,0.2  c-0.1-0.1-0.2-0.1-0.3-0.1c-0.1,0-0.2,0-0.4,0c-0.2,0.1-0.4,0.2-0.5,0.4c-0.1,0.2-0.1,0.4-0.1,0.6c0.1,0.2,0.2,0.4,0.4,0.5  c0.2,0.1,0.4,0.1,0.6,0.1c0.2,0,0.3-0.1,0.4-0.2c0.1-0.1,0.2-0.3,0.2-0.4l-1,0.3l-0.1-0.4L24,14z M20,16.9l-0.5,0.2l-1.1-2.5  l0.5-0.2l1.7,1.1L19.9,14l0.5-0.2l1.1,2.5L21,16.5l-1.7-1.2L20,16.9z M18.6,17.6l-1.2-2.4l0.5-0.2l1.2,2.4L18.6,17.6z M16.3,19  l-0.4,0.3L14.5,17l0.6-0.4l1.6,1.3l-0.5-2l0.6-0.4l1.4,2.3l-0.4,0.3l-1-1.7l0.5,2l-0.3,0.2l-1.6-1.3L16.3,19z M14.7,20.3l-0.4,0.3  l-1.7-2.1l0.5-0.4c0.2-0.1,0.3-0.2,0.4-0.3c0.1-0.1,0.2-0.1,0.2-0.1c0.2,0,0.3,0,0.5,0c0.1,0,0.3,0.1,0.4,0.3  c0.1,0.2,0.2,0.3,0.2,0.5c0,0.2-0.1,0.4-0.2,0.5l1.2,0.4l-0.5,0.4l-1.3-0.5L14.7,20.3z M13.8,19.3L13.8,19.3  c0.3-0.2,0.4-0.3,0.4-0.5c0-0.1,0-0.3-0.1-0.4c-0.1-0.1-0.2-0.2-0.3-0.2c-0.1,0-0.2,0.1-0.4,0.2l-0.1,0.1L13.8,19.3z M11.1,22  c-0.1-0.1-0.2-0.2-0.3-0.3c-0.1-0.1-0.1-0.2-0.1-0.4c0-0.2,0-0.5,0-0.7c0.1-0.2,0.2-0.4,0.3-0.6c0.1-0.1,0.3-0.2,0.4-0.3  c0.2-0.1,0.3-0.1,0.5-0.1c0.2,0,0.4,0,0.5,0.1c0.2,0.1,0.3,0.2,0.5,0.3c0.1,0.1,0.2,0.3,0.3,0.4c0.1,0.2,0.1,0.3,0.1,0.5  c0,0.2,0,0.4-0.1,0.5c-0.1,0.2-0.2,0.3-0.3,0.5c-0.1,0.1-0.3,0.3-0.5,0.3c-0.2,0.1-0.3,0.1-0.5,0.1c-0.2,0-0.4,0-0.5-0.1  C11.4,22.2,11.3,22.1,11.1,22z M11.5,21.5c0.1,0.1,0.2,0.1,0.3,0.2c0.1,0,0.2,0.1,0.3,0.1c0.1,0,0.2,0,0.3-0.1  c0.1,0,0.2-0.1,0.3-0.2c0.2-0.2,0.2-0.4,0.2-0.6c0-0.2-0.1-0.4-0.3-0.6c-0.2-0.2-0.4-0.2-0.6-0.2c-0.2,0-0.4,0.1-0.6,0.2  c-0.2,0.2-0.2,0.4-0.2,0.6C11.2,21.2,11.3,21.4,11.5,21.5z M11.1,24.2L9,22.5l0.9-1.1l0.4,0.3l-0.6,0.7l0.5,0.4l0.6-0.7l0.4,0.3  l-0.6,0.7l0.9,0.7L11.1,24.2z M9.3,25.4L9.5,25l0,0c0.1,0.1,0.2,0.1,0.3,0.1c0.1,0,0.2-0.1,0.2-0.1c0.1-0.1,0.1-0.2,0.1-0.3  c0-0.1-0.1-0.2-0.2-0.2c-0.1-0.1-0.3-0.1-0.5,0.1c0,0,0,0-0.1,0.1c-0.2,0.1-0.3,0.2-0.5,0.2c-0.2,0-0.3,0-0.5-0.1  c-0.2-0.1-0.3-0.3-0.4-0.5c-0.1-0.2,0-0.4,0.1-0.6c0.1-0.2,0.3-0.3,0.5-0.3c0.2,0,0.4,0,0.6,0.1l-0.3,0.4l0,0c-0.1,0-0.1-0.1-0.2,0  c-0.1,0-0.1,0.1-0.2,0.1c0,0.1-0.1,0.1,0,0.2c0,0.1,0.1,0.1,0.1,0.2c0,0,0.1,0,0.1,0c0,0,0.1,0,0.1,0c0.1,0,0.2-0.1,0.3-0.2  c0.1-0.1,0.1-0.1,0.1-0.1c0.2-0.1,0.3-0.2,0.4-0.2c0.1,0,0.3,0,0.4,0.1c0.2,0.2,0.4,0.3,0.4,0.6c0.1,0.2,0,0.4-0.1,0.7  c-0.1,0.2-0.3,0.3-0.5,0.4C9.7,25.6,9.5,25.6,9.3,25.4z M9,27.5L8.8,28l-2.4-1.3l0.2-0.4l2-0.2l-1.5-0.8l0.2-0.5l2.4,1.3l-0.2,0.4  l-2.1,0.2L9,27.5z M7.6,29.5L8,29.9l-0.2,0.5l-2.1-2L5.9,28l2.9,0.1l-0.2,0.5l-0.6,0L7.6,29.5z M7.4,28.6l-0.9,0l0.7,0.6L7.4,28.6z   M7.5,31.7l-0.1,0.5l-2.6-0.7l0.2-0.6C5,30.6,5,30.5,5,30.4c0-0.1,0.1-0.2,0.1-0.2c0.1-0.1,0.2-0.2,0.4-0.3c0.1,0,0.3,0,0.5,0  c0.2,0.1,0.4,0.2,0.5,0.3c0.1,0.1,0.2,0.3,0.1,0.5l1.2-0.4L7.6,31l-1.4,0.3L7.5,31.7z M6.1,31.3l0-0.1c0.1-0.2,0.1-0.4,0-0.5  c0-0.1-0.1-0.2-0.3-0.3c-0.1,0-0.3,0-0.3,0c-0.1,0.1-0.2,0.2-0.2,0.4L5.3,31L6.1,31.3z M4.6,31.8l0.5,0.1L5,32.4l2.2,0.5L7,33.4  l-2.2-0.5l-0.1,0.5l-0.5-0.1L4.6,31.8z"/>
<path class="st10" d="M51.1,50.8l-1.5-0.4l1.1,1.2L51.1,50.8z M52.1,51.1l-0.8,1.3l0.5,0.6L51.1,54l-2.8-3.6l0.8-1.2l4.5,0.9  l-0.7,1.2L52.1,51.1z M46.5,55.2l0.4-0.4c0,0,0.1-0.1,0.2-0.3c0-0.1,0.1-0.2,0.1-0.2c0-0.1-0.1-0.2-0.1-0.2  c-0.1-0.1-0.2-0.1-0.3-0.1c-0.1,0-0.3,0.1-0.4,0.3l-0.4,0.4L46.5,55.2z M47.4,57.9L44.4,55l1.5-1.6c0.3-0.3,0.5-0.5,0.7-0.6  c0.2-0.1,0.4-0.1,0.6-0.1c0.2,0,0.4,0.1,0.6,0.3c0.2,0.2,0.3,0.3,0.3,0.5c0.1,0.2,0.1,0.4,0,0.6c0,0.1-0.1,0.3-0.2,0.4  c0.1-0.1,0.3-0.1,0.3-0.1c0.1,0,0.2,0,0.3,0c0.1,0,0.3,0,0.3,0.1l1.3,0.4l-1,1.1l-1.4-0.4c-0.2-0.1-0.3-0.1-0.4-0.1  c-0.1,0-0.2,0.1-0.3,0.2l-0.1,0.1l1.2,1.2L47.4,57.9z M40.6,57.5l2.9-1.9l0.5,0.8l-1.8,1.2l0.4,0.6l1.7-1.1l0.5,0.7l-1.7,1.1  l0.5,0.7l1.9-1.2l0.5,0.8l-3,2L40.6,57.5z M38,61.5l1.2,0c0,0.3,0,0.6-0.1,0.9c-0.1,0.3-0.3,0.5-0.5,0.6c-0.2,0.2-0.5,0.3-0.9,0.4  c-0.4,0.1-0.8,0.2-1.1,0.1c-0.3-0.1-0.6-0.2-0.9-0.5c-0.3-0.3-0.5-0.7-0.7-1.2c-0.2-0.7-0.2-1.2,0.1-1.7c0.3-0.5,0.7-0.8,1.4-1  c0.5-0.1,1-0.2,1.3,0c0.4,0.1,0.7,0.4,0.9,0.8l-1,0.6c-0.1-0.1-0.1-0.2-0.2-0.2c-0.1-0.1-0.2-0.1-0.3-0.1c-0.1,0-0.2,0-0.4,0  c-0.3,0.1-0.5,0.3-0.6,0.5c-0.1,0.2-0.1,0.5,0,0.9c0.1,0.5,0.3,0.7,0.5,0.9c0.2,0.1,0.4,0.2,0.7,0.1c0.2-0.1,0.4-0.2,0.5-0.4  C38,62,38,61.7,38,61.5z M31.9,60.2l1.3-0.2l0.5,4.2l-1.3,0.2L31.9,60.2z M26.5,60.1l1.3,0.1l-0.1,1.5l1.4,0.1l0.1-1.5l1.3,0.1  l-0.3,4.2L29,64.6l0.1-1.7l-1.4-0.1l-0.1,1.7l-1.3-0.1L26.5,60.1z M22.8,61.1l0.3,0.1c0.2,0.1,0.4,0.1,0.6,0  c0.1-0.1,0.2-0.2,0.2-0.3c0-0.1,0-0.2,0-0.4c-0.1-0.1-0.2-0.2-0.5-0.3L23,60.2L22.8,61.1z M22,59l2.1,0.6c0.5,0.1,0.8,0.3,1,0.6  c0.2,0.3,0.2,0.6,0.1,1c-0.1,0.4-0.3,0.7-0.6,0.9c-0.3,0.2-0.7,0.2-1.2,0.1l-0.7-0.2l-0.4,1.5l-1.3-0.3L22,59z M18.5,60.3l0.3-1.6  l-1.1,1.2L18.5,60.3z M18.3,61.2L17,60.5l-0.5,0.5l-1.2-0.6l3.3-3.1l1.3,0.6l-0.5,4.5l-1.2-0.6L18.3,61.2z M13.9,56l0.4,0.4  c0,0,0.1,0.1,0.3,0.2c0.1,0,0.2,0.1,0.2,0c0.1,0,0.2-0.1,0.2-0.1c0.1-0.1,0.1-0.2,0.1-0.3c0-0.1-0.1-0.2-0.3-0.4l-0.4-0.4L13.9,56z   M11.2,57.1l2.8-3.2l1.6,1.5c0.3,0.3,0.5,0.5,0.6,0.7c0.1,0.2,0.2,0.4,0.1,0.6c0,0.2-0.1,0.4-0.3,0.6c-0.2,0.2-0.3,0.3-0.5,0.4  c-0.2,0.1-0.4,0.1-0.6,0c-0.1,0-0.3-0.1-0.5-0.2c0.1,0.1,0.1,0.3,0.2,0.3c0,0.1,0,0.2,0,0.3c0,0.1,0,0.3,0,0.3l-0.3,1.3l-1.1-1  l0.3-1.4c0-0.2,0.1-0.3,0-0.4c0-0.1-0.1-0.2-0.2-0.3l-0.1-0.1l-1.1,1.3L11.2,57.1z M9.8,53.1l0.7-0.6l1.3,1.6l-1.4,1.1  c-0.5-0.1-0.8-0.3-1.1-0.5c-0.3-0.2-0.5-0.4-0.8-0.7c-0.3-0.4-0.5-0.8-0.6-1.1c-0.1-0.4,0-0.7,0.1-1.1c0.2-0.3,0.4-0.7,0.7-0.9  c0.4-0.3,0.7-0.5,1.1-0.5c0.4-0.1,0.8,0,1.1,0.2c0.3,0.1,0.6,0.4,0.9,0.8c0.3,0.4,0.5,0.7,0.6,0.9c0.1,0.2,0.1,0.5,0.1,0.7  c0,0.2-0.1,0.5-0.3,0.7l-1-0.8c0.1-0.1,0.1-0.3,0.1-0.4c0-0.2-0.1-0.3-0.2-0.5c-0.2-0.2-0.4-0.3-0.7-0.3c-0.3,0-0.6,0.1-0.9,0.4  c-0.4,0.3-0.6,0.6-0.6,0.8c0,0.3,0,0.5,0.2,0.7c0.1,0.1,0.2,0.2,0.3,0.3C9.7,53.9,9.8,54,10,54l0.3-0.2L9.8,53.1z"/>
<!-- <rect x="69.1" y="11.4" class="st9" width="1.1" height="56.8"/> -->
</svg>